<svg width="24" height="24" fill="none" xmlns="http://www.w3.org/2000/svg"><g id="film" stroke="#fff" stroke-width="2" stroke-linecap="round" stroke-linejoin="round"><path id="Vector" d="M19.82 2H4.18A2.18 2.18 0 0 0 2 4.18v15.64A2.18 2.18 0 0 0 4.18 22h15.64A2.18 2.18 0 0 0 22 19.82V4.18A2.18 2.18 0 0 0 19.82 2Z"/><path id="Vector_2" d="M7 2v20"/><path id="Vector_3" d="M17 2v20"/><path id="Vector_4" d="M2 12h20"/><path id="Vector_5" d="M2 7h5"/><path id="Vector_6" d="M2 17h5"/><path id="Vector_7" d="M17 17h5"/><path id="Vector_8" d="M17 7h5"/></g></svg><svg width="12" height="12" fill="none" xmlns="http://www.w3.org/2000/svg"><g id="search-icon" stroke="#fff" stroke-linecap="round" stroke-linejoin="round"><path id="Vector" d="M5.5 9.5a4 4 0 1 0 0-8 4 4 0 0 0 0 8Z"/><path id="Vector_2" d="M10.5 10.5 8.325 8.325"/></g></svg>